<mxfile host="app.diagrams.net" modified="2024-01-07T20:59:49.793Z" agent="Mozilla/5.0 (X11; Linux x86_64; rv:121.0) Gecko/20100101 Firefox/121.0" etag="QDqSUCxFozmPou8BgZXx" version="22.1.17" type="device">
  <diagram name="Страница — 1" id="kRa0nONRpZ12WPJY8AqM">
    <mxGraphModel dx="1434" dy="790" grid="1" gridSize="10" guides="1" tooltips="1" connect="1" arrows="1" fold="1" page="1" pageScale="1" pageWidth="827" pageHeight="1169" math="0" shadow="0">
      <root>
        <mxCell id="0" />
        <mxCell id="1" parent="0" />
        <mxCell id="XXbTRqVZssGIew6GxQ21-12" style="edgeStyle=orthogonalEdgeStyle;rounded=0;orthogonalLoop=1;jettySize=auto;html=1;exitX=1;exitY=1;exitDx=0;exitDy=0;exitPerimeter=0;entryX=0;entryY=0.5;entryDx=0;entryDy=0;curved=1;" edge="1" parent="1" source="XXbTRqVZssGIew6GxQ21-1" target="XXbTRqVZssGIew6GxQ21-6">
          <mxGeometry relative="1" as="geometry" />
        </mxCell>
        <mxCell id="XXbTRqVZssGIew6GxQ21-22" style="edgeStyle=orthogonalEdgeStyle;rounded=0;orthogonalLoop=1;jettySize=auto;html=1;exitX=1;exitY=1;exitDx=0;exitDy=0;exitPerimeter=0;entryX=0;entryY=0.5;entryDx=0;entryDy=0;curved=1;" edge="1" parent="1" source="XXbTRqVZssGIew6GxQ21-1" target="XXbTRqVZssGIew6GxQ21-7">
          <mxGeometry relative="1" as="geometry" />
        </mxCell>
        <mxCell id="XXbTRqVZssGIew6GxQ21-23" style="edgeStyle=orthogonalEdgeStyle;rounded=0;orthogonalLoop=1;jettySize=auto;html=1;exitX=1;exitY=1;exitDx=0;exitDy=0;exitPerimeter=0;entryX=0;entryY=0.5;entryDx=0;entryDy=0;curved=1;" edge="1" parent="1" source="XXbTRqVZssGIew6GxQ21-1" target="XXbTRqVZssGIew6GxQ21-8">
          <mxGeometry relative="1" as="geometry" />
        </mxCell>
        <mxCell id="XXbTRqVZssGIew6GxQ21-24" style="edgeStyle=orthogonalEdgeStyle;rounded=0;orthogonalLoop=1;jettySize=auto;html=1;exitX=1;exitY=1;exitDx=0;exitDy=0;exitPerimeter=0;entryX=0;entryY=0.5;entryDx=0;entryDy=0;curved=1;" edge="1" parent="1" source="XXbTRqVZssGIew6GxQ21-1" target="XXbTRqVZssGIew6GxQ21-9">
          <mxGeometry relative="1" as="geometry" />
        </mxCell>
        <mxCell id="XXbTRqVZssGIew6GxQ21-25" style="edgeStyle=orthogonalEdgeStyle;rounded=0;orthogonalLoop=1;jettySize=auto;html=1;exitX=1;exitY=1;exitDx=0;exitDy=0;exitPerimeter=0;entryX=0;entryY=0.5;entryDx=0;entryDy=0;curved=1;" edge="1" parent="1" source="XXbTRqVZssGIew6GxQ21-1" target="XXbTRqVZssGIew6GxQ21-10">
          <mxGeometry relative="1" as="geometry" />
        </mxCell>
        <mxCell id="XXbTRqVZssGIew6GxQ21-26" style="edgeStyle=orthogonalEdgeStyle;rounded=0;orthogonalLoop=1;jettySize=auto;html=1;exitX=1;exitY=1;exitDx=0;exitDy=0;exitPerimeter=0;entryX=0;entryY=0.5;entryDx=0;entryDy=0;curved=1;" edge="1" parent="1" source="XXbTRqVZssGIew6GxQ21-1" target="XXbTRqVZssGIew6GxQ21-16">
          <mxGeometry relative="1" as="geometry" />
        </mxCell>
        <mxCell id="XXbTRqVZssGIew6GxQ21-28" style="edgeStyle=orthogonalEdgeStyle;rounded=0;orthogonalLoop=1;jettySize=auto;html=1;exitX=1;exitY=1;exitDx=0;exitDy=0;exitPerimeter=0;entryX=0;entryY=0.5;entryDx=0;entryDy=0;curved=1;" edge="1" parent="1" source="XXbTRqVZssGIew6GxQ21-1" target="XXbTRqVZssGIew6GxQ21-27">
          <mxGeometry relative="1" as="geometry" />
        </mxCell>
        <mxCell id="XXbTRqVZssGIew6GxQ21-36" style="edgeStyle=orthogonalEdgeStyle;rounded=0;orthogonalLoop=1;jettySize=auto;html=1;exitX=1;exitY=1;exitDx=0;exitDy=0;exitPerimeter=0;entryX=0;entryY=0.5;entryDx=0;entryDy=0;curved=1;" edge="1" parent="1" source="XXbTRqVZssGIew6GxQ21-1" target="XXbTRqVZssGIew6GxQ21-31">
          <mxGeometry relative="1" as="geometry" />
        </mxCell>
        <mxCell id="XXbTRqVZssGIew6GxQ21-37" style="edgeStyle=orthogonalEdgeStyle;rounded=0;orthogonalLoop=1;jettySize=auto;html=1;exitX=1;exitY=1;exitDx=0;exitDy=0;exitPerimeter=0;entryX=0;entryY=0.5;entryDx=0;entryDy=0;curved=1;" edge="1" parent="1" source="XXbTRqVZssGIew6GxQ21-1" target="XXbTRqVZssGIew6GxQ21-32">
          <mxGeometry relative="1" as="geometry" />
        </mxCell>
        <mxCell id="XXbTRqVZssGIew6GxQ21-38" style="edgeStyle=orthogonalEdgeStyle;rounded=0;orthogonalLoop=1;jettySize=auto;html=1;exitX=1;exitY=1;exitDx=0;exitDy=0;exitPerimeter=0;entryX=0;entryY=0.5;entryDx=0;entryDy=0;curved=1;" edge="1" parent="1" source="XXbTRqVZssGIew6GxQ21-1" target="XXbTRqVZssGIew6GxQ21-33">
          <mxGeometry relative="1" as="geometry" />
        </mxCell>
        <mxCell id="XXbTRqVZssGIew6GxQ21-39" style="edgeStyle=orthogonalEdgeStyle;rounded=0;orthogonalLoop=1;jettySize=auto;html=1;exitX=1;exitY=1;exitDx=0;exitDy=0;exitPerimeter=0;entryX=0;entryY=0.5;entryDx=0;entryDy=0;curved=1;" edge="1" parent="1" source="XXbTRqVZssGIew6GxQ21-1" target="XXbTRqVZssGIew6GxQ21-34">
          <mxGeometry relative="1" as="geometry" />
        </mxCell>
        <mxCell id="XXbTRqVZssGIew6GxQ21-40" style="edgeStyle=orthogonalEdgeStyle;rounded=0;orthogonalLoop=1;jettySize=auto;html=1;exitX=1;exitY=1;exitDx=0;exitDy=0;exitPerimeter=0;entryX=0;entryY=0.5;entryDx=0;entryDy=0;curved=1;" edge="1" parent="1" source="XXbTRqVZssGIew6GxQ21-1" target="XXbTRqVZssGIew6GxQ21-35">
          <mxGeometry relative="1" as="geometry" />
        </mxCell>
        <mxCell id="XXbTRqVZssGIew6GxQ21-47" style="edgeStyle=orthogonalEdgeStyle;rounded=0;orthogonalLoop=1;jettySize=auto;html=1;exitX=1;exitY=1;exitDx=0;exitDy=0;exitPerimeter=0;entryX=0;entryY=0.5;entryDx=0;entryDy=0;curved=1;" edge="1" parent="1" source="XXbTRqVZssGIew6GxQ21-1" target="XXbTRqVZssGIew6GxQ21-46">
          <mxGeometry relative="1" as="geometry" />
        </mxCell>
        <mxCell id="XXbTRqVZssGIew6GxQ21-49" style="edgeStyle=orthogonalEdgeStyle;rounded=0;orthogonalLoop=1;jettySize=auto;html=1;exitX=1;exitY=1;exitDx=0;exitDy=0;exitPerimeter=0;entryX=0;entryY=0.5;entryDx=0;entryDy=0;curved=1;" edge="1" parent="1" source="XXbTRqVZssGIew6GxQ21-1" target="XXbTRqVZssGIew6GxQ21-48">
          <mxGeometry relative="1" as="geometry" />
        </mxCell>
        <mxCell id="XXbTRqVZssGIew6GxQ21-1" value="OrgAdmin" style="shape=umlActor;verticalLabelPosition=bottom;verticalAlign=top;html=1;outlineConnect=0;" vertex="1" parent="1">
          <mxGeometry x="90" y="160" width="30" height="60" as="geometry" />
        </mxCell>
        <mxCell id="XXbTRqVZssGIew6GxQ21-15" style="edgeStyle=orthogonalEdgeStyle;rounded=0;orthogonalLoop=1;jettySize=auto;html=1;exitX=0;exitY=1;exitDx=0;exitDy=0;exitPerimeter=0;entryX=1;entryY=0.5;entryDx=0;entryDy=0;curved=1;" edge="1" parent="1" source="XXbTRqVZssGIew6GxQ21-4" target="XXbTRqVZssGIew6GxQ21-6">
          <mxGeometry relative="1" as="geometry" />
        </mxCell>
        <mxCell id="XXbTRqVZssGIew6GxQ21-17" style="edgeStyle=orthogonalEdgeStyle;rounded=0;orthogonalLoop=1;jettySize=auto;html=1;exitX=0;exitY=1;exitDx=0;exitDy=0;exitPerimeter=0;entryX=1;entryY=0.5;entryDx=0;entryDy=0;curved=1;" edge="1" parent="1" source="XXbTRqVZssGIew6GxQ21-4" target="XXbTRqVZssGIew6GxQ21-7">
          <mxGeometry relative="1" as="geometry" />
        </mxCell>
        <mxCell id="XXbTRqVZssGIew6GxQ21-18" style="edgeStyle=orthogonalEdgeStyle;rounded=0;orthogonalLoop=1;jettySize=auto;html=1;exitX=0;exitY=1;exitDx=0;exitDy=0;exitPerimeter=0;entryX=1;entryY=0.5;entryDx=0;entryDy=0;curved=1;" edge="1" parent="1" source="XXbTRqVZssGIew6GxQ21-4" target="XXbTRqVZssGIew6GxQ21-8">
          <mxGeometry relative="1" as="geometry" />
        </mxCell>
        <mxCell id="XXbTRqVZssGIew6GxQ21-19" style="edgeStyle=orthogonalEdgeStyle;rounded=0;orthogonalLoop=1;jettySize=auto;html=1;exitX=0;exitY=1;exitDx=0;exitDy=0;exitPerimeter=0;entryX=1;entryY=0.5;entryDx=0;entryDy=0;curved=1;" edge="1" parent="1" source="XXbTRqVZssGIew6GxQ21-4" target="XXbTRqVZssGIew6GxQ21-9">
          <mxGeometry relative="1" as="geometry" />
        </mxCell>
        <mxCell id="XXbTRqVZssGIew6GxQ21-20" style="edgeStyle=orthogonalEdgeStyle;rounded=0;orthogonalLoop=1;jettySize=auto;html=1;exitX=0;exitY=1;exitDx=0;exitDy=0;exitPerimeter=0;entryX=1;entryY=0.5;entryDx=0;entryDy=0;curved=1;" edge="1" parent="1" source="XXbTRqVZssGIew6GxQ21-4" target="XXbTRqVZssGIew6GxQ21-10">
          <mxGeometry relative="1" as="geometry" />
        </mxCell>
        <mxCell id="XXbTRqVZssGIew6GxQ21-21" style="edgeStyle=orthogonalEdgeStyle;rounded=0;orthogonalLoop=1;jettySize=auto;html=1;exitX=0;exitY=1;exitDx=0;exitDy=0;exitPerimeter=0;entryX=1;entryY=0.5;entryDx=0;entryDy=0;curved=1;" edge="1" parent="1" source="XXbTRqVZssGIew6GxQ21-4" target="XXbTRqVZssGIew6GxQ21-16">
          <mxGeometry relative="1" as="geometry" />
        </mxCell>
        <mxCell id="XXbTRqVZssGIew6GxQ21-41" style="edgeStyle=orthogonalEdgeStyle;rounded=0;orthogonalLoop=1;jettySize=auto;html=1;exitX=0;exitY=1;exitDx=0;exitDy=0;exitPerimeter=0;entryX=1;entryY=0.5;entryDx=0;entryDy=0;curved=1;" edge="1" parent="1" source="XXbTRqVZssGIew6GxQ21-4" target="XXbTRqVZssGIew6GxQ21-31">
          <mxGeometry relative="1" as="geometry" />
        </mxCell>
        <mxCell id="XXbTRqVZssGIew6GxQ21-42" style="edgeStyle=orthogonalEdgeStyle;rounded=0;orthogonalLoop=1;jettySize=auto;html=1;exitX=0;exitY=1;exitDx=0;exitDy=0;exitPerimeter=0;entryX=1;entryY=0.5;entryDx=0;entryDy=0;curved=1;" edge="1" parent="1" source="XXbTRqVZssGIew6GxQ21-4" target="XXbTRqVZssGIew6GxQ21-32">
          <mxGeometry relative="1" as="geometry" />
        </mxCell>
        <mxCell id="XXbTRqVZssGIew6GxQ21-43" style="edgeStyle=orthogonalEdgeStyle;rounded=0;orthogonalLoop=1;jettySize=auto;html=1;exitX=0;exitY=1;exitDx=0;exitDy=0;exitPerimeter=0;entryX=1;entryY=0.5;entryDx=0;entryDy=0;curved=1;" edge="1" parent="1" source="XXbTRqVZssGIew6GxQ21-4" target="XXbTRqVZssGIew6GxQ21-33">
          <mxGeometry relative="1" as="geometry" />
        </mxCell>
        <mxCell id="XXbTRqVZssGIew6GxQ21-44" style="edgeStyle=orthogonalEdgeStyle;rounded=0;orthogonalLoop=1;jettySize=auto;html=1;exitX=0;exitY=1;exitDx=0;exitDy=0;exitPerimeter=0;entryX=1;entryY=0.5;entryDx=0;entryDy=0;curved=1;" edge="1" parent="1" source="XXbTRqVZssGIew6GxQ21-4" target="XXbTRqVZssGIew6GxQ21-34">
          <mxGeometry relative="1" as="geometry" />
        </mxCell>
        <mxCell id="XXbTRqVZssGIew6GxQ21-45" style="edgeStyle=orthogonalEdgeStyle;rounded=0;orthogonalLoop=1;jettySize=auto;html=1;exitX=0;exitY=1;exitDx=0;exitDy=0;exitPerimeter=0;entryX=1;entryY=0.5;entryDx=0;entryDy=0;curved=1;" edge="1" parent="1" source="XXbTRqVZssGIew6GxQ21-4" target="XXbTRqVZssGIew6GxQ21-35">
          <mxGeometry relative="1" as="geometry" />
        </mxCell>
        <mxCell id="XXbTRqVZssGIew6GxQ21-50" style="edgeStyle=orthogonalEdgeStyle;rounded=0;orthogonalLoop=1;jettySize=auto;html=1;exitX=0;exitY=1;exitDx=0;exitDy=0;exitPerimeter=0;entryX=1;entryY=0.5;entryDx=0;entryDy=0;curved=1;" edge="1" parent="1" source="XXbTRqVZssGIew6GxQ21-4" target="XXbTRqVZssGIew6GxQ21-48">
          <mxGeometry relative="1" as="geometry" />
        </mxCell>
        <mxCell id="XXbTRqVZssGIew6GxQ21-4" value="OrgInvitedUser" style="shape=umlActor;verticalLabelPosition=bottom;verticalAlign=top;html=1;outlineConnect=0;" vertex="1" parent="1">
          <mxGeometry x="700" y="160" width="30" height="60" as="geometry" />
        </mxCell>
        <mxCell id="XXbTRqVZssGIew6GxQ21-6" value="&lt;div&gt;Регистрация/&lt;/div&gt;&lt;div&gt;Авторизация&lt;/div&gt;" style="ellipse;whiteSpace=wrap;html=1;" vertex="1" parent="1">
          <mxGeometry x="354" y="280" width="120" height="40" as="geometry" />
        </mxCell>
        <mxCell id="XXbTRqVZssGIew6GxQ21-7" value="Просмотр организаций" style="ellipse;whiteSpace=wrap;html=1;" vertex="1" parent="1">
          <mxGeometry x="354" y="330" width="120" height="30" as="geometry" />
        </mxCell>
        <mxCell id="XXbTRqVZssGIew6GxQ21-8" value="Просмотр досок" style="ellipse;whiteSpace=wrap;html=1;" vertex="1" parent="1">
          <mxGeometry x="354" y="370" width="120" height="30" as="geometry" />
        </mxCell>
        <mxCell id="XXbTRqVZssGIew6GxQ21-9" value="Просмотр листов задач" style="ellipse;whiteSpace=wrap;html=1;" vertex="1" parent="1">
          <mxGeometry x="354" y="410" width="120" height="40" as="geometry" />
        </mxCell>
        <mxCell id="XXbTRqVZssGIew6GxQ21-10" value="Просмотр задач" style="ellipse;whiteSpace=wrap;html=1;" vertex="1" parent="1">
          <mxGeometry x="354" y="460" width="120" height="30" as="geometry" />
        </mxCell>
        <mxCell id="XXbTRqVZssGIew6GxQ21-13" style="edgeStyle=orthogonalEdgeStyle;rounded=0;orthogonalLoop=1;jettySize=auto;html=1;exitX=0;exitY=1;exitDx=0;exitDy=0;exitPerimeter=0;entryX=0.5;entryY=0;entryDx=0;entryDy=0;curved=1;" edge="1" parent="1" source="XXbTRqVZssGIew6GxQ21-11" target="XXbTRqVZssGIew6GxQ21-6">
          <mxGeometry relative="1" as="geometry" />
        </mxCell>
        <mxCell id="XXbTRqVZssGIew6GxQ21-11" value="Guest" style="shape=umlActor;verticalLabelPosition=bottom;verticalAlign=top;html=1;outlineConnect=0;" vertex="1" parent="1">
          <mxGeometry x="414" y="160" width="30" height="60" as="geometry" />
        </mxCell>
        <mxCell id="XXbTRqVZssGIew6GxQ21-16" value="Просмотр активности по доскам и задачам" style="ellipse;whiteSpace=wrap;html=1;" vertex="1" parent="1">
          <mxGeometry x="354" y="700" width="120" height="70" as="geometry" />
        </mxCell>
        <mxCell id="XXbTRqVZssGIew6GxQ21-27" value="Редактирование организации" style="ellipse;whiteSpace=wrap;html=1;" vertex="1" parent="1">
          <mxGeometry x="354" y="780" width="120" height="40" as="geometry" />
        </mxCell>
        <mxCell id="XXbTRqVZssGIew6GxQ21-31" value="Редактирование досок" style="ellipse;whiteSpace=wrap;html=1;" vertex="1" parent="1">
          <mxGeometry x="354" y="500" width="120" height="30" as="geometry" />
        </mxCell>
        <mxCell id="XXbTRqVZssGIew6GxQ21-32" value="Редактирование листов" style="ellipse;whiteSpace=wrap;html=1;" vertex="1" parent="1">
          <mxGeometry x="354" y="540" width="120" height="30" as="geometry" />
        </mxCell>
        <mxCell id="XXbTRqVZssGIew6GxQ21-33" value="Редактирование задач" style="ellipse;whiteSpace=wrap;html=1;" vertex="1" parent="1">
          <mxGeometry x="354" y="580" width="120" height="30" as="geometry" />
        </mxCell>
        <mxCell id="XXbTRqVZssGIew6GxQ21-34" value="Перемещение листов" style="ellipse;whiteSpace=wrap;html=1;" vertex="1" parent="1">
          <mxGeometry x="354" y="620" width="120" height="30" as="geometry" />
        </mxCell>
        <mxCell id="XXbTRqVZssGIew6GxQ21-35" value="Перемещение задач" style="ellipse;whiteSpace=wrap;html=1;" vertex="1" parent="1">
          <mxGeometry x="354" y="660" width="120" height="30" as="geometry" />
        </mxCell>
        <mxCell id="XXbTRqVZssGIew6GxQ21-46" value="Приглашение пользователя в организацию" style="ellipse;whiteSpace=wrap;html=1;" vertex="1" parent="1">
          <mxGeometry x="354" y="830" width="120" height="50" as="geometry" />
        </mxCell>
        <mxCell id="XXbTRqVZssGIew6GxQ21-48" value="Создать организацию" style="ellipse;whiteSpace=wrap;html=1;" vertex="1" parent="1">
          <mxGeometry x="354" y="890" width="120" height="50" as="geometry" />
        </mxCell>
      </root>
    </mxGraphModel>
  </diagram>
</mxfile>
